# xmcd
#
# Track frame offsets: 
#        150
#        19368
#        35768
#        52271
#        68832
#        89529
#        107646
#        123492
#        134211
#        154415
#        167444
#        184287
#
# Disc length: 2655 seconds
#
# Revision: 1
# Processed by: cddbd v1.5.2PL0 Copyright (c) Steve Scherf et al.
# Submitted via: ExactAudioCopy v1.0b3
#
DISCID=b70a5d0c
DTITLE=Waylon - Wicked Ways
DYEAR=2009
DGENRE=Country
TTITLE0=Wicked Way
TTITLE1=Fragile People
TTITLE2=Could Have Been Me
TTITLE3=Nothing To Lose
TTITLE4=Hey
TTITLE5=Tell Me What You're Thinking
TTITLE6=Happy Song
TTITLE7=Sometimes An Angel
TTITLE8=Don't Go Changing
TTITLE9=Ain't Nothing Wrong With That
TTITLE10=Hate Me
TTITLE11=Until We Meet Again
EXTD=
EXTT0=
EXTT1=
EXTT2=
EXTT3=
EXTT4=
EXTT5=
EXTT6=
EXTT7=
EXTT8=
EXTT9=
EXTT10=
EXTT11=
PLAYORDER=
